<?xml version="1.0" standalone="no"?>
<!DOCTYPE svg PUBLIC "-//W3C//DTD SVG 20010904//EN"
 "http://www.w3.org/TR/2001/REC-SVG-20010904/DTD/svg10.dtd">
<svg version="1.0" xmlns="http://www.w3.org/2000/svg"
 width="800.000000pt" height="800.000000pt" viewBox="0 0 800.000000 800.000000"
 preserveAspectRatio="xMidYMid meet">
<metadata>
Created by potrace 1.14, written by Peter Selinger 2001-2017
</metadata>
<g transform="translate(0.000000,800.000000) scale(0.100000,-0.100000)"
fill="#000000" stroke="none">
<path d="M5749 7947 c-79 -24 -150 -69 -219 -138 -208 -211 -359 -486 -446
-810 -9 -35 -18 -71 -19 -79 -1 -8 -5 -26 -8 -40 -9 -33 -14 -68 -42 -265 -19
-136 -28 -698 -14 -893 l7 -82 -127 6 c-251 12 -627 9 -771 -7 -41 -5 -97 -11
-125 -14 -27 -3 -63 -7 -80 -10 -16 -3 -55 -10 -85 -15 -646 -114 -1128 -486
-1359 -1048 -88 -216 -140 -451 -168 -762 -10 -103 -10 -615 -2 -758 l7 -104
-147 7 c-164 8 -554 8 -646 0 -140 -11 -202 -17 -225 -20 -14 -2 -45 -7 -70
-10 -212 -29 -450 -99 -635 -186 -213 -101 -464 -298 -516 -407 -81 -167 23
-374 207 -412 60 -13 150 0 192 27 13 8 26 13 28 11 2 -2 329 -328 727 -726
l724 -723 -20 -41 c-12 -23 -23 -67 -25 -98 -10 -137 71 -257 203 -301 107
-35 214 -7 301 79 271 269 450 722 526 1332 14 113 17 514 6 716 l-6 122 141
-6 c274 -11 706 -5 807 12 14 3 48 7 75 10 28 3 60 8 72 10 11 3 43 7 70 11
26 4 93 18 148 32 55 13 107 26 115 28 44 10 225 81 305 120 457 224 776 631
905 1154 35 143 49 223 65 366 4 33 9 71 12 85 8 36 11 754 4 828 l-7 63 156
-7 c262 -12 688 -6 778 10 9 2 44 7 77 10 489 55 895 239 1183 536 189 194
189 449 0 530 -94 40 -243 21 -323 -42 -14 -11 -28 -19 -30 -17 -3 2 -330 329
-728 727 l-724 723 27 42 c62 99 80 228 42 303 -59 115 -201 165 -343 121z
m1485 -2122 c-60 -46 -301 -150 -394 -169 -14 -3 -52 -11 -86 -19 l-61 -13
-537 536 -537 535 15 70 c35 162 95 321 168 442 l32 52 710 -709 c671 -672
709 -711 690 -725z m-1251 97 c177 -177 323 -326 325 -331 5 -14 -692 -1 -706
14 -7 7 -12 116 -18 410 l-6 310 41 -40 c23 -22 187 -185 364 -363z m-1043
-867 c52 -4 97 -9 99 -11 3 -2 6 -28 7 -57 2 -28 5 -96 8 -151 3 -54 6 -194 5
-310 0 -116 0 -223 0 -238 1 -16 -2 -28 -6 -28 -5 0 -187 180 -406 399 -394
395 -398 400 -365 403 54 6 555 1 658 -7z m64 -1178 c-9 -75 -62 -234 -113
-338 -44 -89 -99 -179 -110 -179 -5 0 -1407 1397 -1429 1424 -5 7 129 87 202
121 69 31 179 70 279 97 l48 13 562 -563 c309 -309 561 -568 561 -575z m-455
-746 c-73 -60 -311 -162 -455 -195 l-61 -14 -558 558 -558 558 13 53 c37 156
111 333 183 441 l32 46 714 -714 714 -714 -24 -19z m-1230 97 l354 -356 -314
4 c-301 3 -457 9 -466 17 -3 4 -8 60 -17 202 -5 75 -8 302 -7 494 l1 84 48
-44 c26 -24 206 -204 401 -401z m-1149 -883 c85 -4 156 -8 158 -10 12 -11 28
-665 17 -665 -9 0 -685 671 -685 681 0 7 314 4 510 -6z m-371 -548 l517 -517
-21 -103 c-35 -164 -110 -366 -163 -434 -17 -22 -21 -18 -715 677 -385 384
-696 703 -693 708 16 26 294 142 381 158 11 2 49 10 85 18 36 8 71 14 78 13 7
-1 246 -235 531 -520z"/>
</g>
</svg>
